<mxfile host="app.diagrams.net" modified="2022-05-26T08:25:23.832Z" agent="5.0 (Windows NT 10.0; Win64; x64) AppleWebKit/537.36 (KHTML, like Gecko) Chrome/101.0.4951.64 Safari/537.36 Edg/101.0.1210.53" etag="a7HDp2uXQUG61tshZe1s" version="18.1.1" type="github">
  <diagram id="C5RBs43oDa-KdzZeNtuy" name="Page-1">
    <mxGraphModel dx="1422" dy="761" grid="0" gridSize="10" guides="1" tooltips="1" connect="1" arrows="1" fold="1" page="1" pageScale="1" pageWidth="1200" pageHeight="1920" math="0" shadow="0">
      <root>
        <mxCell id="WIyWlLk6GJQsqaUBKTNV-0" />
        <mxCell id="WIyWlLk6GJQsqaUBKTNV-1" parent="WIyWlLk6GJQsqaUBKTNV-0" />
        <mxCell id="llNl7VoYxa_XHELYgRbV-3" value="" style="edgeStyle=orthogonalEdgeStyle;rounded=0;orthogonalLoop=1;jettySize=auto;html=1;" edge="1" parent="WIyWlLk6GJQsqaUBKTNV-1" source="WIyWlLk6GJQsqaUBKTNV-3" target="llNl7VoYxa_XHELYgRbV-2">
          <mxGeometry relative="1" as="geometry" />
        </mxCell>
        <mxCell id="WIyWlLk6GJQsqaUBKTNV-3" value="开始" style="rounded=1;whiteSpace=wrap;html=1;fontSize=12;glass=0;strokeWidth=1;shadow=0;" parent="WIyWlLk6GJQsqaUBKTNV-1" vertex="1">
          <mxGeometry x="178" y="41" width="80" height="40" as="geometry" />
        </mxCell>
        <mxCell id="llNl7VoYxa_XHELYgRbV-5" value="" style="edgeStyle=orthogonalEdgeStyle;rounded=0;orthogonalLoop=1;jettySize=auto;html=1;" edge="1" parent="WIyWlLk6GJQsqaUBKTNV-1" source="llNl7VoYxa_XHELYgRbV-2" target="llNl7VoYxa_XHELYgRbV-4">
          <mxGeometry relative="1" as="geometry" />
        </mxCell>
        <mxCell id="llNl7VoYxa_XHELYgRbV-2" value="前台页面请求后端数据" style="whiteSpace=wrap;html=1;rounded=0;glass=0;strokeWidth=1;shadow=0;" vertex="1" parent="WIyWlLk6GJQsqaUBKTNV-1">
          <mxGeometry x="298" y="41" width="120" height="40" as="geometry" />
        </mxCell>
        <mxCell id="llNl7VoYxa_XHELYgRbV-7" value="" style="edgeStyle=orthogonalEdgeStyle;rounded=0;orthogonalLoop=1;jettySize=auto;html=1;" edge="1" parent="WIyWlLk6GJQsqaUBKTNV-1" source="llNl7VoYxa_XHELYgRbV-4">
          <mxGeometry relative="1" as="geometry">
            <mxPoint x="618" y="61" as="targetPoint" />
          </mxGeometry>
        </mxCell>
        <mxCell id="llNl7VoYxa_XHELYgRbV-4" value="Controller层调用blogs()方法" style="whiteSpace=wrap;html=1;rounded=0;glass=0;strokeWidth=1;shadow=0;" vertex="1" parent="WIyWlLk6GJQsqaUBKTNV-1">
          <mxGeometry x="458" y="41" width="120" height="40" as="geometry" />
        </mxCell>
        <mxCell id="llNl7VoYxa_XHELYgRbV-9" value="" style="edgeStyle=orthogonalEdgeStyle;rounded=0;orthogonalLoop=1;jettySize=auto;html=1;" edge="1" parent="WIyWlLk6GJQsqaUBKTNV-1" target="llNl7VoYxa_XHELYgRbV-8">
          <mxGeometry relative="1" as="geometry">
            <mxPoint x="738" y="61" as="sourcePoint" />
            <Array as="points">
              <mxPoint x="758" y="61" />
              <mxPoint x="758" y="161" />
            </Array>
          </mxGeometry>
        </mxCell>
        <mxCell id="llNl7VoYxa_XHELYgRbV-6" value="&lt;font style=&quot;font-size: 11px; line-height: 0.8;&quot;&gt;blogs()方法调用Service层listBlog()方法&lt;/font&gt;" style="whiteSpace=wrap;html=1;rounded=0;glass=0;strokeWidth=1;shadow=0;" vertex="1" parent="WIyWlLk6GJQsqaUBKTNV-1">
          <mxGeometry x="520" y="35" width="120" height="50" as="geometry" />
        </mxCell>
        <mxCell id="llNl7VoYxa_XHELYgRbV-11" value="" style="edgeStyle=orthogonalEdgeStyle;rounded=0;orthogonalLoop=1;jettySize=auto;html=1;fontSize=12;" edge="1" parent="WIyWlLk6GJQsqaUBKTNV-1" source="llNl7VoYxa_XHELYgRbV-8" target="llNl7VoYxa_XHELYgRbV-10">
          <mxGeometry relative="1" as="geometry" />
        </mxCell>
        <mxCell id="llNl7VoYxa_XHELYgRbV-8" value="listBlog()方法调用Dao层对象查询数据库" style="whiteSpace=wrap;html=1;rounded=0;glass=0;strokeWidth=1;shadow=0;" vertex="1" parent="WIyWlLk6GJQsqaUBKTNV-1">
          <mxGeometry x="618" y="136" width="120" height="50" as="geometry" />
        </mxCell>
        <mxCell id="llNl7VoYxa_XHELYgRbV-13" value="" style="edgeStyle=orthogonalEdgeStyle;rounded=0;orthogonalLoop=1;jettySize=auto;html=1;fontSize=12;" edge="1" parent="WIyWlLk6GJQsqaUBKTNV-1" source="llNl7VoYxa_XHELYgRbV-10" target="llNl7VoYxa_XHELYgRbV-12">
          <mxGeometry relative="1" as="geometry" />
        </mxCell>
        <mxCell id="llNl7VoYxa_XHELYgRbV-10" value="Dao层返回Pageable对象" style="whiteSpace=wrap;html=1;rounded=0;glass=0;strokeWidth=1;shadow=0;" vertex="1" parent="WIyWlLk6GJQsqaUBKTNV-1">
          <mxGeometry x="458" y="141" width="120" height="40" as="geometry" />
        </mxCell>
        <mxCell id="llNl7VoYxa_XHELYgRbV-27" style="edgeStyle=orthogonalEdgeStyle;rounded=0;orthogonalLoop=1;jettySize=auto;html=1;entryX=1;entryY=0.5;entryDx=0;entryDy=0;entryPerimeter=0;fontSize=12;" edge="1" parent="WIyWlLk6GJQsqaUBKTNV-1" source="llNl7VoYxa_XHELYgRbV-12" target="llNl7VoYxa_XHELYgRbV-26">
          <mxGeometry relative="1" as="geometry" />
        </mxCell>
        <mxCell id="llNl7VoYxa_XHELYgRbV-12" value="View层解析数据，在前端渲染数据" style="whiteSpace=wrap;html=1;rounded=0;glass=0;strokeWidth=1;shadow=0;" vertex="1" parent="WIyWlLk6GJQsqaUBKTNV-1">
          <mxGeometry x="298" y="141" width="120" height="40" as="geometry" />
        </mxCell>
        <mxCell id="llNl7VoYxa_XHELYgRbV-19" value="" style="edgeStyle=orthogonalEdgeStyle;rounded=0;orthogonalLoop=1;jettySize=auto;html=1;fontSize=12;" edge="1" parent="WIyWlLk6GJQsqaUBKTNV-1" source="llNl7VoYxa_XHELYgRbV-17" target="llNl7VoYxa_XHELYgRbV-18">
          <mxGeometry relative="1" as="geometry" />
        </mxCell>
        <mxCell id="llNl7VoYxa_XHELYgRbV-17" value="开始" style="rounded=1;whiteSpace=wrap;html=1;fontSize=12;glass=0;strokeWidth=1;shadow=0;" vertex="1" parent="WIyWlLk6GJQsqaUBKTNV-1">
          <mxGeometry x="178" y="362" width="80" height="40" as="geometry" />
        </mxCell>
        <mxCell id="llNl7VoYxa_XHELYgRbV-21" value="" style="edgeStyle=orthogonalEdgeStyle;rounded=0;orthogonalLoop=1;jettySize=auto;html=1;fontSize=12;" edge="1" parent="WIyWlLk6GJQsqaUBKTNV-1" source="llNl7VoYxa_XHELYgRbV-18" target="llNl7VoYxa_XHELYgRbV-20">
          <mxGeometry relative="1" as="geometry" />
        </mxCell>
        <mxCell id="llNl7VoYxa_XHELYgRbV-18" value="发送编辑文章请求，跳转到编辑页面" style="whiteSpace=wrap;html=1;rounded=0;glass=0;strokeWidth=1;shadow=0;" vertex="1" parent="WIyWlLk6GJQsqaUBKTNV-1">
          <mxGeometry x="298" y="362" width="120" height="40" as="geometry" />
        </mxCell>
        <mxCell id="llNl7VoYxa_XHELYgRbV-23" value="" style="edgeStyle=orthogonalEdgeStyle;rounded=0;orthogonalLoop=1;jettySize=auto;html=1;fontSize=12;" edge="1" parent="WIyWlLk6GJQsqaUBKTNV-1" source="llNl7VoYxa_XHELYgRbV-20" target="llNl7VoYxa_XHELYgRbV-22">
          <mxGeometry relative="1" as="geometry" />
        </mxCell>
        <mxCell id="llNl7VoYxa_XHELYgRbV-20" value="获取文章id，调用Service层方法从Dao层查询Blog对象" style="whiteSpace=wrap;html=1;rounded=0;glass=0;strokeWidth=1;shadow=0;" vertex="1" parent="WIyWlLk6GJQsqaUBKTNV-1">
          <mxGeometry x="458" y="357" width="120" height="50" as="geometry" />
        </mxCell>
        <mxCell id="llNl7VoYxa_XHELYgRbV-25" value="" style="edgeStyle=orthogonalEdgeStyle;rounded=0;orthogonalLoop=1;jettySize=auto;html=1;fontSize=12;exitX=1;exitY=0.5;exitDx=0;exitDy=0;entryX=1;entryY=0.5;entryDx=0;entryDy=0;" edge="1" parent="WIyWlLk6GJQsqaUBKTNV-1" source="llNl7VoYxa_XHELYgRbV-22" target="llNl7VoYxa_XHELYgRbV-30">
          <mxGeometry relative="1" as="geometry">
            <mxPoint x="728" y="487" as="targetPoint" />
            <Array as="points">
              <mxPoint x="768" y="382" />
              <mxPoint x="768" y="487" />
            </Array>
          </mxGeometry>
        </mxCell>
        <mxCell id="llNl7VoYxa_XHELYgRbV-22" value="将Blog对象的属性渲染到编辑页面" style="whiteSpace=wrap;html=1;rounded=0;glass=0;strokeWidth=1;shadow=0;" vertex="1" parent="WIyWlLk6GJQsqaUBKTNV-1">
          <mxGeometry x="618" y="362" width="120" height="40" as="geometry" />
        </mxCell>
        <mxCell id="llNl7VoYxa_XHELYgRbV-29" value="" style="edgeStyle=orthogonalEdgeStyle;rounded=0;orthogonalLoop=1;jettySize=auto;html=1;fontSize=12;exitX=0;exitY=0.5;exitDx=0;exitDy=0;" edge="1" parent="WIyWlLk6GJQsqaUBKTNV-1" source="llNl7VoYxa_XHELYgRbV-30" target="llNl7VoYxa_XHELYgRbV-28">
          <mxGeometry relative="1" as="geometry">
            <mxPoint x="628" y="487" as="sourcePoint" />
          </mxGeometry>
        </mxCell>
        <mxCell id="llNl7VoYxa_XHELYgRbV-26" value="前端页面显示" style="strokeWidth=1;html=1;shape=mxgraph.flowchart.display;whiteSpace=wrap;rounded=0;fontSize=12;" vertex="1" parent="WIyWlLk6GJQsqaUBKTNV-1">
          <mxGeometry x="158" y="138.5" width="100" height="45" as="geometry" />
        </mxCell>
        <mxCell id="llNl7VoYxa_XHELYgRbV-32" value="" style="edgeStyle=orthogonalEdgeStyle;rounded=0;orthogonalLoop=1;jettySize=auto;html=1;fontSize=12;" edge="1" parent="WIyWlLk6GJQsqaUBKTNV-1" source="llNl7VoYxa_XHELYgRbV-28" target="llNl7VoYxa_XHELYgRbV-31">
          <mxGeometry relative="1" as="geometry" />
        </mxCell>
        <mxCell id="llNl7VoYxa_XHELYgRbV-28" value="发送保存请求" style="whiteSpace=wrap;html=1;rounded=0;glass=0;strokeWidth=1;shadow=0;" vertex="1" parent="WIyWlLk6GJQsqaUBKTNV-1">
          <mxGeometry x="468" y="467" width="100" height="40" as="geometry" />
        </mxCell>
        <mxCell id="llNl7VoYxa_XHELYgRbV-30" value="传入更新后&lt;br&gt;的数据" style="shape=parallelogram;html=1;strokeWidth=1;perimeter=parallelogramPerimeter;whiteSpace=wrap;rounded=0;arcSize=12;size=0.23;fontSize=12;" vertex="1" parent="WIyWlLk6GJQsqaUBKTNV-1">
          <mxGeometry x="618" y="467" width="120" height="40" as="geometry" />
        </mxCell>
        <mxCell id="llNl7VoYxa_XHELYgRbV-36" value="" style="edgeStyle=orthogonalEdgeStyle;rounded=0;orthogonalLoop=1;jettySize=auto;html=1;fontSize=12;" edge="1" parent="WIyWlLk6GJQsqaUBKTNV-1" source="llNl7VoYxa_XHELYgRbV-31" target="llNl7VoYxa_XHELYgRbV-35">
          <mxGeometry relative="1" as="geometry" />
        </mxCell>
        <mxCell id="llNl7VoYxa_XHELYgRbV-31" value="Service层调用updateBlog()方法" style="whiteSpace=wrap;html=1;rounded=0;glass=0;strokeWidth=1;shadow=0;" vertex="1" parent="WIyWlLk6GJQsqaUBKTNV-1">
          <mxGeometry x="298" y="467" width="120" height="40" as="geometry" />
        </mxCell>
        <mxCell id="llNl7VoYxa_XHELYgRbV-35" value="&lt;br&gt;存储数据" style="strokeWidth=1;html=1;shape=mxgraph.flowchart.database;whiteSpace=wrap;rounded=0;fontSize=12;" vertex="1" parent="WIyWlLk6GJQsqaUBKTNV-1">
          <mxGeometry x="198" y="457" width="60" height="60" as="geometry" />
        </mxCell>
        <mxCell id="llNl7VoYxa_XHELYgRbV-37" value="列表展示文章功能" style="text;html=1;align=center;verticalAlign=middle;resizable=0;points=[];autosize=1;strokeColor=none;fillColor=none;fontSize=12;" vertex="1" parent="WIyWlLk6GJQsqaUBKTNV-1">
          <mxGeometry x="32" y="10" width="106" height="18" as="geometry" />
        </mxCell>
        <mxCell id="llNl7VoYxa_XHELYgRbV-38" value="文章编辑功能" style="text;html=1;align=center;verticalAlign=middle;resizable=0;points=[];autosize=1;strokeColor=none;fillColor=none;fontSize=12;" vertex="1" parent="WIyWlLk6GJQsqaUBKTNV-1">
          <mxGeometry x="44" y="323" width="82" height="18" as="geometry" />
        </mxCell>
      </root>
    </mxGraphModel>
  </diagram>
</mxfile>
